# xmcd CD database file
#
# Track frame offsets:
#	150
#	14422
#	32311
#	50375
#	67473
#	82579
#	98777
#	115927
#	130904
#	146714
#	163693
#	179909
#	194754
#	210239
#	227765
#	244605
#	256358
#	268885
#	285506
#	303833
#	319269
#	332705
#
# Disc length: 4653 seconds
#
# Revision: 0
# Processed by: cddbd v1.5.2PL0 Copyright (c) Steve Scherf et al.
# Submitted via: CDex 1.70beta2
#
DISCID=42122b16
DTITLE=Various Artist - NU COUNTRY TRAXX 172
DYEAR=2013
DGENRE=Country
TTITLE0=Radio [Remix] - Darius Rucker 
TTITLE1=Southern Girl - Tim McGraw
TTITLE2=Mine Would Be You - Blake Shelton
TTITLE3=Kiss You There - Ronnie Dunn
TTITLE4=Cold Beer With Your Name On It - Josh Thompson
TTITLE5=Ain't Much Left Of Me - Blackberry Smoke
TTITLE6=I Miss You - Henningsens 
TTITLE7=Wake Up Lovin' You - Craig Morgan
TTITLE8=The Heart Of Dixie - Danielle Bradbery
TTITLE9=I Believe - George Strait
TTITLE10=Crushin' - Bush Hawg
TTITLE11=Drivin' Around Song - Colt Ford ft. Jason Aldean
TTITLE12=You Give Me That - Brandon Hamilton
TTITLE13=Helluva Life - Frankie Ballard
TTITLE14=Blue Skies - Uncle Kracker 
TTITLE15=Fishin' For Something - Rachele Lynae
TTITLE16=Tie It Up - Kelly Clarkson
TTITLE17=Lord Help Me - Rachel Holder
TTITLE18=What Are You Listnening To - Chris Stapleton
TTITLE19=17 and Young - Tyler Barham
TTITLE20=Shake It Off - Ash Bowers 
TTITLE21=101 Proof - Colton James
EXTD=YEAR: 2013
EXTT0=
EXTT1=
EXTT2=
EXTT3=
EXTT4=
EXTT5=
EXTT6=
EXTT7=
EXTT8=
EXTT9=
EXTT10=
EXTT11=
EXTT12=
EXTT13=
EXTT14=
EXTT15=
EXTT16=
EXTT17=
EXTT18=
EXTT19=
EXTT20=
EXTT21=
PLAYORDER=
